<svg width="40" height="40" viewBox="0 0 40 40" fill="none" xmlns="http://www.w3.org/2000/svg">
<g id="Group 2">
<path id="Fill 1" opacity="0.4" d="M29.3511 0H10.6667C3.85778 0 0 3.85778 0 10.6667V29.3333C0 36.1422 3.85778 40 10.6667 40H29.3511C36.16 40 40 36.1422 40 29.3333V10.6667C40 3.85778 36.16 0 29.3511 0Z" fill="url(#paint0_linear_17_6)"/>
<path id="Fill 4" d="M10.7373 14.7378C9.83065 14.7378 9.08398 15.4845 9.08398 16.4089V30.1511C9.08398 31.0578 9.83065 31.8045 10.7373 31.8045C11.6618 31.8045 12.4084 31.0578 12.4084 30.1511V16.4089C12.4084 15.4845 11.6618 14.7378 10.7373 14.7378Z" fill="url(#paint1_linear_17_6)"/>
<path id="Fill 6" d="M20.0708 8.17773C19.1641 8.17773 18.4175 8.9244 18.4175 9.84885V30.1511C18.4175 31.0577 19.1641 31.8044 20.0708 31.8044C20.9953 31.8044 21.7419 31.0577 21.7419 30.1511V9.84885C21.7419 8.9244 20.9953 8.17773 20.0708 8.17773Z" fill="url(#paint2_linear_17_6)"/>
<path id="Fill 8" d="M29.2798 21.9912C28.3553 21.9912 27.6086 22.7379 27.6086 23.6623V30.1512C27.6086 31.0579 28.3553 31.8045 29.262 31.8045C30.1864 31.8045 30.9331 31.0579 30.9331 30.1512V23.6623C30.9331 22.7379 30.1864 21.9912 29.2798 21.9912Z" fill="url(#paint3_linear_17_6)"/>
</g>
<defs>
<linearGradient id="paint0_linear_17_6" x1="40" y1="-2.38419e-06" x2="2.38419e-06" y2="40" gradientUnits="userSpaceOnUse">
<stop stop-color="#916BE3"/>
<stop offset="1" stop-color="#61CCE3"/>
</linearGradient>
<linearGradient id="paint1_linear_17_6" x1="12.4084" y1="14.7378" x2="6.0026" y2="15.9856" gradientUnits="userSpaceOnUse">
<stop stop-color="#916BE3"/>
<stop offset="1" stop-color="#61CCE3"/>
</linearGradient>
<linearGradient id="paint2_linear_17_6" x1="21.7419" y1="8.17773" x2="15.2221" y2="9.09512" gradientUnits="userSpaceOnUse">
<stop stop-color="#916BE3"/>
<stop offset="1" stop-color="#61CCE3"/>
</linearGradient>
<linearGradient id="paint3_linear_17_6" x1="30.9331" y1="21.9912" x2="24.9687" y2="24.0118" gradientUnits="userSpaceOnUse">
<stop stop-color="#916BE3"/>
<stop offset="1" stop-color="#61CCE3"/>
</linearGradient>
</defs>
</svg>
