<svg width="44" height="32" viewBox="0 0 44 32" fill="none" xmlns="http://www.w3.org/2000/svg">
<g id="Group 3">
<path id="Fill 1" d="M21.8982 21.0801C14.9982 21.0801 9.17627 22.2076 9.17627 26.5591C9.17627 30.9123 15.0358 32.0002 21.8982 32.0002C28.7981 32.0002 34.62 30.8727 34.62 26.5212C34.62 22.168 28.7605 21.0801 21.8982 21.0801Z" fill="url(#paint0_linear_17_13)"/>
<path id="Fill 3" opacity="0.4" d="M21.8981 16.9341C26.5703 16.9341 30.3166 13.1661 30.3166 8.46703C30.3166 3.76613 26.5703 0 21.8981 0C17.2259 0 13.4795 3.76613 13.4795 8.46703C13.4795 13.1661 17.2259 16.9341 21.8981 16.9341Z" fill="url(#paint1_linear_17_13)"/>
<path id="Fill 6" opacity="0.4" d="M40.1759 10.4385C41.3847 5.68352 37.8407 1.41309 33.3278 1.41309C32.8372 1.41309 32.368 1.46712 31.9095 1.55898C31.8486 1.57338 31.7806 1.604 31.7448 1.65804C31.7036 1.72648 31.734 1.81834 31.7788 1.87777C33.1344 3.79055 33.9134 6.11939 33.9134 8.61934C33.9134 11.0148 33.1989 13.2482 31.9453 15.1015C31.8164 15.2925 31.931 15.55 32.1585 15.5896C32.4736 15.6455 32.796 15.6743 33.1255 15.6833C36.4116 15.7698 39.3611 13.6426 40.1759 10.4385Z" fill="url(#paint2_linear_17_13)"/>
<path id="Fill 8" d="M43.6186 21.6339C43.0169 20.3443 41.5645 19.46 39.3565 19.0259C38.3142 18.7701 35.4937 18.4099 32.8702 18.4586C32.8308 18.464 32.8093 18.491 32.8057 18.509C32.8003 18.5342 32.8111 18.5774 32.863 18.6044C34.0754 19.2078 38.7619 21.832 38.1727 27.3669C38.1477 27.6064 38.3393 27.8135 38.5775 27.7775C39.7307 27.6118 42.6981 26.9706 43.6186 24.9732C44.1272 23.9177 44.1272 22.6912 43.6186 21.6339Z" fill="url(#paint3_linear_17_13)"/>
<path id="Fill 11" opacity="0.4" d="M12.0897 1.55946C11.633 1.46581 11.162 1.41357 10.6713 1.41357C6.15852 1.41357 2.61451 5.68401 3.8251 10.4389C4.63812 13.6431 7.58758 15.7702 10.8737 15.6838C11.2032 15.6748 11.5274 15.6442 11.8407 15.5901C12.0682 15.5505 12.1828 15.2929 12.0538 15.102C10.8003 13.2469 10.0858 11.0153 10.0858 8.61982C10.0858 6.11808 10.8665 3.78924 12.2222 1.87826C12.2652 1.81882 12.2974 1.72697 12.2544 1.65853C12.2186 1.60269 12.1523 1.57387 12.0897 1.55946Z" fill="url(#paint4_linear_17_13)"/>
<path id="Fill 13" d="M4.64311 19.0254C2.43505 19.4595 0.984495 20.3438 0.382785 21.6334C-0.127595 22.6907 -0.127595 23.9172 0.382785 24.9745C1.30326 26.9701 4.27062 27.6131 5.4239 27.777C5.66208 27.813 5.8519 27.6077 5.82683 27.3664C5.23766 21.8333 9.9242 19.2091 11.1384 18.6057C11.1885 18.5769 11.1992 18.5355 11.1939 18.5085C11.1903 18.4905 11.1706 18.4635 11.1312 18.4598C8.50588 18.4094 5.68715 18.7696 4.64311 19.0254Z" fill="url(#paint5_linear_17_13)"/>
</g>
<defs>
<linearGradient id="paint0_linear_17_13" x1="34.62" y1="21.0801" x2="26.7045" y2="39.5231" gradientUnits="userSpaceOnUse">
<stop stop-color="#916BE3"/>
<stop offset="1" stop-color="#61CCE3"/>
</linearGradient>
<linearGradient id="paint1_linear_17_13" x1="30.3166" y1="-1.00935e-06" x2="13.3829" y2="16.8369" gradientUnits="userSpaceOnUse">
<stop stop-color="#916BE3"/>
<stop offset="1" stop-color="#61CCE3"/>
</linearGradient>
<linearGradient id="paint2_linear_17_13" x1="40.4149" y1="1.41309" x2="27.7356" y2="9.13255" gradientUnits="userSpaceOnUse">
<stop stop-color="#916BE3"/>
<stop offset="1" stop-color="#61CCE3"/>
</linearGradient>
<linearGradient id="paint3_linear_17_13" x1="44" y1="18.4541" x2="34.8258" y2="29.4657" gradientUnits="userSpaceOnUse">
<stop stop-color="#916BE3"/>
<stop offset="1" stop-color="#61CCE3"/>
</linearGradient>
<linearGradient id="paint4_linear_17_13" x1="12.2747" y1="1.41357" x2="-0.404435" y2="9.13265" gradientUnits="userSpaceOnUse">
<stop stop-color="#916BE3"/>
<stop offset="1" stop-color="#61CCE3"/>
</linearGradient>
<linearGradient id="paint5_linear_17_13" x1="11.1951" y1="18.4551" x2="2.02254" y2="29.466" gradientUnits="userSpaceOnUse">
<stop stop-color="#916BE3"/>
<stop offset="1" stop-color="#61CCE3"/>
</linearGradient>
</defs>
</svg>
