<svg width="18" height="16" viewBox="0 0 18 16" fill="none" xmlns="http://www.w3.org/2000/svg">
<path d="M1 14C1 14.5 1.5 15 2 15H4C4.5 15 5 14.5 5 14V9C5 8.5 4.5 8 4 8H2C1.5 8 1 8.5 1 9V14Z" fill="#D9D9D9" stroke="white" stroke-width="0.2"/>
<path d="M7 14C7 14.5 7.5 15 8 15H10C10.5 15 11 14.5 11 14V5C11 4.5 10.5 4 10 4H8C7.5 4 7 4.5 7 5V14Z" fill="#D9D9D9" stroke="white" stroke-width="0.2"/>
<path d="M13 14C13 14.5 13.5 15 14 15H16C16.5 15 17 14.5 17 14V2C17 1.5 16.5 0.999997 16 1H14C13.5 0.999997 13 1.5 13 2V14Z" fill="#D9D9D9" stroke="white" stroke-width="0.2"/>
</svg>
