<svg width="134" height="117" viewBox="0 0 134 117" fill="none" xmlns="http://www.w3.org/2000/svg">
<path d="M49.736 86.1346C40.5795 70.1465 48.0927 57.1855 66.5172 57.1855H99.8777L131.65 112.664C132.769 114.617 131.851 116.2 129.601 116.2H66.9545L49.736 86.1346Z" fill="url(#paint0_linear_145_45)"/>
<path d="M127.46 0.211128C129.742 0.219094 130.883 0.223078 131.533 0.610751C132.104 0.951759 132.416 1.49379 132.423 2.15917C132.432 2.9156 131.861 3.90379 130.72 5.88018L67.0046 116.239L36.2242 63.3752C35.1427 61.5179 34.602 60.5892 34.4607 59.5048C34.3355 58.5435 34.4417 57.4952 34.7752 56.3994C35.1514 55.1633 35.9191 53.8512 37.4544 51.227L63.0492 7.47961C64.5816 4.86036 65.3478 3.55074 66.5199 2.55313C67.551 1.67552 68.7935 0.964248 70.0708 0.520404C71.5227 0.0158663 73.035 0.0211452 76.0595 0.0317031L127.46 0.211128Z" fill="url(#paint1_linear_145_45)"/>
<defs>
<linearGradient id="paint0_linear_145_45" x1="117.235" y1="105.948" x2="77.9853" y2="83.6751" gradientUnits="userSpaceOnUse">
<stop stop-color="#FBFAFC"/>
<stop offset="1" stop-color="#F4F2F7" stop-opacity="0"/>
</linearGradient>
<linearGradient id="paint1_linear_145_45" x1="67.0046" y1="116.239" x2="9.48749" y2="49.675" gradientUnits="userSpaceOnUse">
<stop stop-color="#916BE3"/>
<stop offset="1" stop-color="#61CCE3"/>
</linearGradient>
</defs>
</svg>
